<svg xmlns="http://www.w3.org/2000/svg" width="208.955" height="43.627" viewBox="0 0 208.955 43.627">
  <path id="Path_36645" data-name="Path 36645" d="M28.8-7.1c.1,3.312.192,6.576.336,9.888.1.576.24,1.152.336,1.776l.24.24a1.049,1.049,0,0,1,.144-.24c.24-.816.432-1.632.624-2.4.384-2.64.72-5.232,1.008-7.872q.36-3.1.432-6.192a5.345,5.345,0,0,1,.1-.816c0-.288.192-.432.48-.528a2.387,2.387,0,0,1,.768-.144h.1c2.448-.24,4.848-.48,7.248-.72a.953.953,0,0,0,.528-.048.609.609,0,0,0,.336-.528,4.2,4.2,0,0,0-.912-1.152,18.752,18.752,0,0,0-1.968-1.44c-.72-.336-.72-.624,0-.96,0-.048.048-.1.144-.192a20.5,20.5,0,0,1,2.112-1.44c.528-.432,1.1-.864,1.68-1.248a10.85,10.85,0,0,0,1.248-.768,2.26,2.26,0,0,0,.624-.72,2.8,2.8,0,0,0-.288-1.248,11.6,11.6,0,0,0-5.472-5.136,3.988,3.988,0,0,0-1.92-.528q-2.016,0-4.032.144a2.537,2.537,0,0,1-.576-.048.365.365,0,0,1-.288-.384c.048-.96.144-1.92.192-2.88a2.816,2.816,0,0,1,.192-1.1,2.621,2.621,0,0,0,.384-1.536,2.006,2.006,0,0,0-.816-1.344,25,25,0,0,0-2.64-1.728,1.152,1.152,0,0,0-1.776.288c-.384.48-.336.864.24,1.152a1.368,1.368,0,0,1,.384.672c.048,2.5.1,4.944.24,7.392a1.772,1.772,0,0,1-.912,1.872,11.936,11.936,0,0,0-2.688,2.016c-.768.816-1.536,1.68-2.208,2.544a1.255,1.255,0,0,0-.144.384.981.981,0,0,0,.432-.24,8.731,8.731,0,0,1,2.016-1.728,13.8,13.8,0,0,1,3.072-1.1c.432-.144.624,0,.624.432,0,1.872.1,3.7.192,5.568a25.9,25.9,0,0,0,.144,2.688.688.688,0,0,1-.24.528c-.768.384-1.536.768-2.352,1.1a17.316,17.316,0,0,0-1.872,1.056.425.425,0,0,0-.192.48c.1.528.192,1.1.336,1.632a1.019,1.019,0,0,0,1.248.816,13.913,13.913,0,0,0,2.3-.672,1.705,1.705,0,0,1,.432-.192c.192-.048.288,0,.336.144,0,.144.048.288.048.432Zm3.024-16.56a1.546,1.546,0,0,1-.1-.72,12.512,12.512,0,0,1,.192-1.968,1.112,1.112,0,0,1,.72-.672c.816-.1,1.632-.24,2.4-.384a4.569,4.569,0,0,1,4.512,1.824.789.789,0,0,1-.1.48A27.293,27.293,0,0,1,36.72-22.08c-1.44,1.248-2.88,2.448-4.32,3.552a1.13,1.13,0,0,1-.48.24l-.1-.48C31.776-20.352,31.776-22.032,31.824-23.664ZM8.544-8.976A1.629,1.629,0,0,1,10.08-8.3a4.7,4.7,0,0,1,.048,4.944,1.02,1.02,0,0,0-.048,1.1A9.5,9.5,0,0,0,11.808-.1a1.14,1.14,0,0,0,1.1.144,1.724,1.724,0,0,0,.336-.48l.384-3.552c.144-.864.24-1.68.384-2.592a8.326,8.326,0,0,1,.24-2.448c.336-1.488.768-2.928,1.2-4.32a2.232,2.232,0,0,1,.144-.432,1.369,1.369,0,0,0-.336.384,2.679,2.679,0,0,0-.24.384c-.672,1.248-1.3,2.544-1.92,3.888-.144.24-.288.288-.48.1a9.6,9.6,0,0,0-4.08-2.3q-.5-.072-.288-.576c.48-1.056,1.008-2.064,1.536-3.072A64.525,64.525,0,0,0,14.3-26.352c.48-1.344.912-2.736,1.344-4.128.288-.864.576-1.728.816-2.592a1.9,1.9,0,0,0-.72-1.92A7.862,7.862,0,0,0,14.4-36.1a1.645,1.645,0,0,0-1.632-.144c-.432.192-.912.432-1.344.672a5.015,5.015,0,0,1,1.008,1.008.948.948,0,0,1,.288.672c-.1.72-.192,1.44-.336,2.112a72.383,72.383,0,0,1-7.44,19.44,7.343,7.343,0,0,1-1.488,1.968A2.691,2.691,0,0,0,2.736-8.5a2.163,2.163,0,0,0,.912,1.728c.528.384.912.288,1.3-.24a1.924,1.924,0,0,1,.672-.72A4.154,4.154,0,0,1,8.544-8.976Zm13.44-1.536a2.632,2.632,0,0,0,.72-.384,1.63,1.63,0,0,0-.336-.864,5.808,5.808,0,0,1-.912-.96,2.741,2.741,0,0,1-.624-1.008q-.144-1.584-.144-3.168a9.644,9.644,0,0,1,.384-3.072.609.609,0,0,0,.048-.288c-.1.048-.192.1-.192.24-.384.912-.72,1.824-1.056,2.784l-.144.288a1.049,1.049,0,0,1-.144-.24c-.384-1.1-.768-2.208-1.152-3.36a4.5,4.5,0,0,0-.288-.72.746.746,0,0,0-.384-.288,1.133,1.133,0,0,0-.384.432c-.1.1-.1.24-.1.432a13.366,13.366,0,0,0,.384,6A5.758,5.758,0,0,0,21.072-10.8C21.36-10.7,21.648-10.608,21.984-10.512Zm53.184,6.72c-.816.048-1.68.1-2.544.1h-.336c.1-.1.144-.192.192-.24C74.3-5.424,76.176-6.864,78-8.3a6.828,6.828,0,0,1,1.968-1.344c1.2-.576,1.392-1.344.576-2.352a8.182,8.182,0,0,0-.912-.912A5.176,5.176,0,0,0,78-13.92a2.511,2.511,0,0,0-1.776-.1,9.717,9.717,0,0,1-1.584.432c-.288.144-.432.048-.432-.24l.192-1.488a.962.962,0,0,1,.48-.576,35.59,35.59,0,0,1,3.6-1.248c1.056-.432,2.112-.864,3.12-1.344a1.585,1.585,0,0,0,.96-.96,1.049,1.049,0,0,0-.432-1.2c-.288-.192-.24-.384.1-.528a19.549,19.549,0,0,0,4.608-6.72,1.6,1.6,0,0,1,.24-.576A.692.692,0,0,1,87.6-28.8a.537.537,0,0,0,.336-.384,4.238,4.238,0,0,0-1.2-3.408c-1.44-1.2-2.88-2.352-4.416-3.408a3.226,3.226,0,0,0-1.44-.624,13.929,13.929,0,0,0-5.808.192A13.406,13.406,0,0,0,69.7-33.648a20.573,20.573,0,0,0-4.08,4.56.89.89,0,0,0-.1.336.682.682,0,0,0-.1.288.264.264,0,0,0,.24-.144,12.244,12.244,0,0,1,1.1-1.152c.912-.672,1.824-1.344,2.784-1.968a2.4,2.4,0,0,1,.816-.528c.624-.288.912-.144.912.528a22.686,22.686,0,0,1-.24,3.6,1.4,1.4,0,0,1-.1.432c-2.016,1.248-4.032,2.5-6.1,3.744a1.675,1.675,0,0,0-.432.288.928.928,0,0,0-.24.432,4.53,4.53,0,0,0,.432.144l4.176.288a4.118,4.118,0,0,0,1.1-.1l.384-.1-.192.384q-1.728,2.592-3.6,5.04a3.342,3.342,0,0,0-.528,1.1,1.625,1.625,0,0,0,.144,1.152.98.98,0,0,0,.96.72l3.072-.1c.288,0,.48.144.48.432l.1,1.872a1.916,1.916,0,0,1-.336.624,19.068,19.068,0,0,0-1.68.96c-2.256,1.44-4.416,2.88-6.528,4.32a1.273,1.273,0,0,0-.576.96,1.281,1.281,0,0,0,.624.912,4.954,4.954,0,0,0,1.872.528l2.352.144.576.1c-.144.144-.288.24-.432.384a10.837,10.837,0,0,1-2.352,1.488c-.864.384-1.776.816-2.64,1.152C60,0,58.416.768,56.88,1.536l-.24.24a2.34,2.34,0,0,0,.336.144,6.633,6.633,0,0,0,6.144-.288A32.591,32.591,0,0,1,67.3-.24,17.543,17.543,0,0,1,72.24-1.1c1.68-.1,3.36-.144,4.992-.144a11.878,11.878,0,0,1,2.928.24,22.433,22.433,0,0,1,3.12.624,11.064,11.064,0,0,1,2.88,1.3,1.721,1.721,0,0,0,1.2,0A.573.573,0,0,0,87.6.288a1.694,1.694,0,0,0-.384-.624A6.951,6.951,0,0,0,86.4-1.2a8.9,8.9,0,0,0-3.84-1.824A34.827,34.827,0,0,0,75.168-3.792Zm-.576-17.28.1-2.688a.616.616,0,0,1,.192-.48A14.943,14.943,0,0,1,76.8-25.3c1.248-.624,1.392-1.392.432-2.4-.528-.432-1.056-.864-1.68-1.3a1.312,1.312,0,0,1-.384-.672A4.021,4.021,0,0,0,73.3-32.592a2.218,2.218,0,0,0-.336-.336.862.862,0,0,1,.432-.192,10.736,10.736,0,0,1,4.176-1.056,10.451,10.451,0,0,1,3.024.288A5.844,5.844,0,0,1,83.184-32.4a1.124,1.124,0,0,1,.336.816c-.384,1.008-.768,1.968-1.248,2.976-1.344,2.352-2.736,4.656-4.224,6.912a5.294,5.294,0,0,1-2.976,2.208c-.336.192-.528.1-.48-.288ZM70.56-8.16a1.493,1.493,0,0,1-.24,1.488,6.278,6.278,0,0,1-1.1,1.152.257.257,0,0,0-.192.144c-.576,0-1.152.048-1.776,0a3.369,3.369,0,0,1-1.68-.432.51.51,0,0,1-.048-.576c.912-.816,1.872-1.632,2.832-2.4a11.1,11.1,0,0,1,1.68-.864c.48-.288.624-.144.528.432Zm.048-13.68v3.5a.667.667,0,0,1-.48.576,7.965,7.965,0,0,1-.768.288c-.528.144-1.056.288-1.632.48H67.44c-.1-.048-.1-.144,0-.24.624-.96,1.2-1.872,1.824-2.784a13.193,13.193,0,0,0,1.1-1.584C70.464-21.648,70.512-21.744,70.608-21.84Zm4.464,10.368v.24c-.144.192-.336.384-.48.576a4.78,4.78,0,0,1-.528.48.3.3,0,0,1,0-.288,2.205,2.205,0,0,1,.336-.768A2.776,2.776,0,0,1,75.072-11.472ZM59.52-31.392a59.525,59.525,0,0,0-1.1,7.152A15.36,15.36,0,0,0,60-18.816a21.649,21.649,0,0,0,3.12,4.7,2.275,2.275,0,0,0,.48.48q.072.072.288,0a.214.214,0,0,0,0-.24l-.864-1.776a9.662,9.662,0,0,1-.672-1.2c-.336-.864-.672-1.824-1.008-2.736a8.36,8.36,0,0,1-.24-1.056c-.144-3.5-.336-7.056-.432-10.608a1.569,1.569,0,0,0-.528-.72A1.219,1.219,0,0,0,59.52-31.392Zm94.9,23.808c0,2.448-.048,4.08-.048,4.9a3.47,3.47,0,0,1-1.488,2.64,1.451,1.451,0,0,1-.768.24,8.206,8.206,0,0,1-4.8-2.5.9.9,0,0,0-.336-.288c-.336.192-.432.432-.24.72a4.054,4.054,0,0,0,.72.864,37.149,37.149,0,0,0,6.912,5.376.717.717,0,0,0,.48.144A4.217,4.217,0,0,0,156.48,3.6a3.028,3.028,0,0,0,.96-1.584c.144-2.3.24-4.608.336-6.912a12.817,12.817,0,0,1,0-1.92c.048-1.344.1-2.736.1-4.128-.048-1.056-.1-2.16-.144-3.264a4.567,4.567,0,0,1,.192-.864,1.763,1.763,0,0,0,.048-.864,15.894,15.894,0,0,0-1.872-2.112,4.217,4.217,0,0,0-1.632-.912,2.152,2.152,0,0,0-1.776.384,15.635,15.635,0,0,0-1.92,1.152,6.587,6.587,0,0,0-1.632,1.632c-.1.1-.24.1-.432.048a.524.524,0,0,0-.816.1c-.288.336-.576.72-.864,1.1.048.192.1.336.144.528h.288c.288-.192.432-.1.384.24-.048.816-.1,1.68-.192,2.544a4.017,4.017,0,0,1-.624,1.392,5.313,5.313,0,0,1-2.64,2.16.9.9,0,0,0-.384.1,1.057,1.057,0,0,1,.048-.384c.528-1.056,1.056-2.064,1.632-3.12v-.24q0,.072-.144.144c-.48.72-.912,1.488-1.344,2.208a.479.479,0,0,0-.192.24.306.306,0,0,1,0-.288,51.288,51.288,0,0,1,1.776-5.856c.528-1.056,1.008-2.112,1.536-3.168a3.121,3.121,0,0,1,2.64-2.016,31.526,31.526,0,0,1,4.272-.576c1.632-.1,3.216-.144,4.8-.144,1.152.1,2.256.288,3.408.48a.722.722,0,0,0,.816-.048.5.5,0,0,0,.144-.768,4.185,4.185,0,0,0-.864-1.488,8.741,8.741,0,0,0-1.3-.72,2.31,2.31,0,0,0-1.392-.192c-2.88.24-5.808.432-8.736.528a.269.269,0,0,1-.288-.24c.1-.624.24-1.248.384-1.872a.684.684,0,0,1,.48-.48c1.584-.432,3.168-.864,4.752-1.248,1.248-.24,1.44-.816.624-1.728a6.789,6.789,0,0,0-1.728-1.152,1.058,1.058,0,0,0-.768,0c-1.008.432-2.016.864-2.976,1.248-.288.1-.432,0-.432-.336a15.613,15.613,0,0,0-.144-2.112c-.1-.432.1-.72.576-.816,1.968-.576,3.84-1.152,5.712-1.776a1.048,1.048,0,0,0,1.008-1.152c-.144-.288-.24-.528-.384-.768a2.079,2.079,0,0,0-1.824-.768c-1.392.528-2.832,1.008-4.272,1.44-.576.288-.816.048-.72-.576a1.84,1.84,0,0,0-.528-2.016c-.432-.432-.912-.816-1.344-1.2-.528-.48-.864-.336-1.008.336-.192,1.3-.384,2.592-.624,3.888a.524.524,0,0,1-.192.576c-1.152.1-2.64.24-4.464.384a2.663,2.663,0,0,1-.384-.288,2.9,2.9,0,0,0-.384-.384,6.084,6.084,0,0,0-1.1.576.666.666,0,0,0,0,.432,9.664,9.664,0,0,0,2.064,1.632,3.8,3.8,0,0,0,2.5.576,8.433,8.433,0,0,1,1.488-.192.574.574,0,0,1,.336.336c0,1.008,0,2.016-.048,2.976a.692.692,0,0,1-.432.528c-1.344.336-2.688.72-4.032,1.056h-.576c.1-.144.24-.24.384-.432.816-.528,1.584-1.1,2.352-1.68a1.31,1.31,0,0,0,.432-.576,2.438,2.438,0,0,1-.816.144c-.048.1-.1.1-.1.1-1.152.816-2.3,1.68-3.408,2.544a.745.745,0,0,0,.048,1.3,3.189,3.189,0,0,0,1.92.48q1.8-.144,3.6-.432c.144,0,.24.1.336.24a8.171,8.171,0,0,1-.1,1.872.826.826,0,0,1-.528.528,44.122,44.122,0,0,0-9.552,3.648,7.341,7.341,0,0,1-1.392.336c-.48.048-.672.288-.528.768a2.707,2.707,0,0,0,.528.96,1.723,1.723,0,0,0,2.64.672,31.132,31.132,0,0,1,7.68-3.36,1.329,1.329,0,0,1,.624-.144,5.232,5.232,0,0,0-.288.528,25.621,25.621,0,0,0-1.584,3.264,44.636,44.636,0,0,0-2.976,9.072c-.336,1.584-.624,3.12-.912,4.7a4.989,4.989,0,0,0-.192,1.872,2.807,2.807,0,0,0,.72,1.728.972.972,0,0,0,.672.384h.816a1.5,1.5,0,0,0,.24-.48l.336-6.912c-.1-.48.144-.72.624-.768A14.431,14.431,0,0,0,145.968-6a4.167,4.167,0,0,0,1.872-.864,3.763,3.763,0,0,1,.672-.24,14.222,14.222,0,0,1,2.736-.672c.96-.1,1.872-.192,2.832-.24A.611.611,0,0,1,154.416-7.584Zm-.192-5.9c.048,1.152.048,2.3,0,3.408a1.8,1.8,0,0,0-.048.528,1.6,1.6,0,0,1-.48-.288,2.456,2.456,0,0,0-2.112-.576c-.528.1-.72-.1-.576-.624a7.425,7.425,0,0,0,.288-1.488,2.649,2.649,0,0,0-.336-1.44,5.26,5.26,0,0,0-1.008-1.056,1.827,1.827,0,0,0-.624-.432,4.171,4.171,0,0,1,.816-.768,4.073,4.073,0,0,1,1.248-.528,16.173,16.173,0,0,1,2.544-.576.872.872,0,0,1,.48.528A15.356,15.356,0,0,1,154.224-13.488Zm-27.216-2.88a.569.569,0,0,0,.384-.048c.144-.1.24-.1.336.048a.284.284,0,0,1,.048.336L127.3-12.1c-.24,3.024-.48,6.048-.672,9.072-.048.48-.1.96-.144,1.392a4.861,4.861,0,0,0-.1,2.352,2.72,2.72,0,0,0,1.248,1.824,9.825,9.825,0,0,0,2.448,1.248,1.547,1.547,0,0,0,1.2-.336,1.429,1.429,0,0,0-.192-1.008,2.153,2.153,0,0,1-.144-1.872c.432-1.536.912-3.072,1.44-4.56.912-2.448,1.824-4.944,2.736-7.392a.609.609,0,0,0,.048-.288c-.048,0-.1.1-.144.192q-1.44,2.52-2.88,4.9c-1.152,1.776-2.3,3.6-3.36,5.424-.288.336-.432.336-.576,0a6.432,6.432,0,0,1-.672-1.728A26.957,26.957,0,0,1,127.3-7.3a27.04,27.04,0,0,1,.48-4.464,7.249,7.249,0,0,1,.432-1.968,3.3,3.3,0,0,1,1.1-1.584,12.514,12.514,0,0,0,2.64-2.64c-.048-.048,0-.1.048-.1a.61.61,0,0,0,.1-1.056c-.528-.432-1.1-.816-1.632-1.2-.432-.144-.864-.336-1.3-.528a2.066,2.066,0,0,0-.768,0c-.864.528-1.68,1.1-2.5,1.68a2.34,2.34,0,0,1-.528.192,1.278,1.278,0,0,1,.144-.576c1.584-2.688,3.216-5.28,4.8-7.872a1.979,1.979,0,0,1,.672-1.008,4.917,4.917,0,0,1,1.392-.768l2.16.1a1.165,1.165,0,0,0,.864-1.488,5.082,5.082,0,0,0-1.1-2.064,7.618,7.618,0,0,0-1.728-1.536,4.746,4.746,0,0,0-2.112-.816,1.461,1.461,0,0,0-1.152.528,1.58,1.58,0,0,0,.288.912,3.838,3.838,0,0,1,.864,3.744A27.635,27.635,0,0,1,127.824-24c-1.152,1.872-2.256,3.648-3.408,5.424a.9.9,0,0,0,0,1.248,1.8,1.8,0,0,0,1.152.816A3.69,3.69,0,0,0,127.008-16.368Zm83.664-6.816c.912.048,1.2-.336.912-1.152a4.672,4.672,0,0,0-1.008-1.584,7.31,7.31,0,0,0-2.112-1.488c-.768-.336-1.584-.672-2.4-.96a5.5,5.5,0,0,0-4.272.048l-1.392.672q-3.168,1.512-6.336,3.168a3.171,3.171,0,0,1-.72.24,2.775,2.775,0,0,0,.24-.672c1.728-3.12,3.408-6.24,5.136-9.456a19.586,19.586,0,0,0,.816-2.016,1.462,1.462,0,0,0-.48-1.824.633.633,0,0,0-.72-.144,3.157,3.157,0,0,0-1.1.816,47.987,47.987,0,0,0-7.3,10.176,32.322,32.322,0,0,0-1.872,4.368c-.48,1.488-1.008,2.976-1.488,4.464q-.072.216,0,.288a8.938,8.938,0,0,0,1.68,1.92,1.41,1.41,0,0,0,1.584.24,1.779,1.779,0,0,0,.864-1.344A2.706,2.706,0,0,0,190.9-18a6.039,6.039,0,0,1,2.688-2.784c1.152-.72,2.3-1.488,3.408-2.208q1.224-.648,2.448-1.152l3.552-1.3a1.008,1.008,0,0,1,1.44.912,2.462,2.462,0,0,1-.576,1.824c-1.584,1.968-3.168,3.888-4.8,5.76a2.087,2.087,0,0,1-.192.336.694.694,0,0,0,.336-.1c1.1-.672,2.16-1.344,3.216-2.064a24.774,24.774,0,0,1,3.36-1.776,16.151,16.151,0,0,0,3.408-2.256,5.247,5.247,0,0,1,.72-.384A.732.732,0,0,1,210.672-23.184ZM180.816.96v.048a10.615,10.615,0,0,0,1.2-.24,24.094,24.094,0,0,0,9.12-5.808c1.776-1.92,3.456-3.888,5.136-5.9a8.119,8.119,0,0,0,.96-2.208,8.118,8.118,0,0,0,.72-2.064,1.689,1.689,0,0,0,.144-.96,7.489,7.489,0,0,0-1.1-1.344,3.209,3.209,0,0,0-.96-.816,1.157,1.157,0,0,0-.72-.192,9.841,9.841,0,0,0-1.968.768.907.907,0,0,0-.336.624,1.1,1.1,0,0,0,.576.72,2.586,2.586,0,0,1,.624.336c.24.1.288.336.288.576a1.916,1.916,0,0,1-.192.624A30.523,30.523,0,0,1,190.9-8.3a21.1,21.1,0,0,1-8.112,7.248c-.672.384-1.1.24-1.248-.48,0-.144,0-.24-.1-.288l-.192.192c-.48.48-.96,1.008-1.392,1.536a1.25,1.25,0,0,0-.192.72,1.916,1.916,0,0,0,.624.336ZM175.3-2.352a1.237,1.237,0,0,0,.624-.384c.336-.624.624-1.248.912-1.92a8.639,8.639,0,0,0,.576-1.68c.24-.384.432-.72.624-1.1.576-1.488,1.2-2.928,1.824-4.416.864-2.112,1.824-4.176,2.784-6.24.384-1.008.768-2.016,1.1-3.024a13.641,13.641,0,0,1,1.3-2.976.364.364,0,0,1,.1-.192v-.48a2.664,2.664,0,0,0-.288.384L178.656-14.16c-1.248,1.872-2.5,3.744-3.792,5.52-.192.384-.48.432-.768.144q-1.08-.936-1.44.432c-.24.816-.48,1.584-.768,2.352a1.348,1.348,0,0,0,.48,1.968,7.025,7.025,0,0,0,1.344,1.008A2.6,2.6,0,0,0,175.3-2.352ZM203.424-7.2a18.764,18.764,0,0,0-5.712-1.824c-1.344-.144-1.968,0-1.92.384.192.336.384.672.576.96.72.384,1.3.672,1.728.912q2.088,1.584,4.032,3.168a25.922,25.922,0,0,1,4.656,4.8,3.055,3.055,0,0,0,.96.96.96.96,0,0,0,1.536-.576l.288-.384a2.022,2.022,0,0,0,.48-.96,4.092,4.092,0,0,0-.384-1.68,18.317,18.317,0,0,0-2.64-3.456A8.928,8.928,0,0,0,203.424-7.2ZM176.688-24.624h-.144a1.99,1.99,0,0,0,.144.768l.576-.432a3.246,3.246,0,0,1,1.1-.336,12.154,12.154,0,0,1,1.584.576c1.3.48,1.872.1,1.728-1.248a2.361,2.361,0,0,0-.24-.96,7.393,7.393,0,0,0-4.272-3.792,1.48,1.48,0,0,0-2.16.864c-.384.624-.192,1.056.528,1.2a1.021,1.021,0,0,1,.864.96C176.5-26.256,176.592-25.44,176.688-24.624Z" transform="translate(-2.736 38.827)" fill="#3e3a39"/>
</svg>
