<svg id="Group_8" data-name="Group 8" xmlns="http://www.w3.org/2000/svg" width="581.935" height="904.075" viewBox="0 0 581.935 904.075">
  <g id="Group_5" data-name="Group 5" transform="translate(167.384)">
    <path id="Path_24" data-name="Path 24" d="M457.484,528.774,302.068,313.78l-84.351,63.005-.307,35.005,84.439-70.01Z" transform="translate(-217.41 375.3)" fill="#3e3a39"/>
    <path id="Path_25" data-name="Path 25" d="M457.764,493.9,302.37,278.91l-84.395,63.027-.286,34.983,84.439-69.988Z" transform="translate(-217.075 333.594)" fill="#3e3a39"/>
    <path id="Path_26" data-name="Path 26" d="M458.054,459.045,302.638,244.05l-84.351,63.005-.307,35.005L302.4,272.072Z" transform="translate(-216.728 291.899)" fill="#3e3a39"/>
    <path id="Path_27" data-name="Path 27" d="M458.344,424.163,302.928,209.19l-84.373,62.983-.285,35.005,84.417-69.988Z" transform="translate(-216.381 250.204)" fill="#3e3a39"/>
    <path id="Path_28" data-name="Path 28" d="M458.612,389.293,303.218,174.32l-84.373,63-.286,35.005,84.395-69.988Z" transform="translate(-216.035 208.498)" fill="#3e3a39"/>
    <path id="Path_29" data-name="Path 29" d="M458.892,354.445,303.476,139.45l-84.351,63.027-.286,35.005,84.417-70.01Z" transform="translate(-215.7 166.791)" fill="#3e3a39"/>
    <path id="Path_30" data-name="Path 30" d="M459.16,319.585,303.766,104.59,219.415,167.6,219.13,202.6l84.395-70.01Z" transform="translate(-215.353 125.096)" fill="#3e3a39"/>
    <path id="Path_31" data-name="Path 31" d="M459.45,284.724,304.034,69.73l-84.351,62.983-.263,35.027,84.373-70.01Z" transform="translate(-215.006 83.401)" fill="#3e3a39"/>
    <path id="Path_32" data-name="Path 32" d="M459.708,249.855,304.336,34.86,219.985,97.865,219.7,132.87l84.395-70.01Z" transform="translate(-214.671 41.695)" fill="#3e3a39"/>
    <path id="Path_33" data-name="Path 33" d="M460.01,214.973,304.616,0,220.288,63.005,219.98,98.01,304.375,28Z" transform="translate(-214.336)" fill="#3e3a39"/>
  </g>
  <g id="Group_6" data-name="Group 6" transform="translate(410.005 135.607)">
    <path id="Path_34" data-name="Path 34" d="M495.911,431.9,387.14,281.4l-59.074,44.1-.176,24.508,59.074-49.016Z" transform="translate(-327.89 200.965)" fill="#3e3a39"/>
    <path id="Path_35" data-name="Path 35" d="M496.135,407.486,387.364,256.99l-59.052,44.1L328.07,325.6l59.1-48.994Z" transform="translate(-327.675 171.769)" fill="#3e3a39"/>
    <path id="Path_36" data-name="Path 36" d="M496.334,383.086,387.542,232.59l-59.052,44.1-.22,24.486L387.388,252.2Z" transform="translate(-327.436 142.585)" fill="#3e3a39"/>
    <path id="Path_37" data-name="Path 37" d="M496.523,358.664,387.752,208.19l-59.074,44.075-.2,24.508,59.1-48.994Z" transform="translate(-327.184 113.401)" fill="#3e3a39"/>
    <path id="Path_38" data-name="Path 38" d="M496.735,334.254,387.942,183.78l-59.052,44.1-.22,24.508,59.1-48.994Z" transform="translate(-326.957 84.205)" fill="#3e3a39"/>
    <path id="Path_39" data-name="Path 39" d="M496.935,309.866,388.12,159.37l-59.03,44.119L328.87,228l59.1-49.016Z" transform="translate(-326.718 55.01)" fill="#3e3a39"/>
    <path id="Path_40" data-name="Path 40" d="M497.1,285.466,388.33,134.97l-59.074,44.1-.176,24.508,59.074-48.994Z" transform="translate(-326.467 25.826)" fill="#3e3a39"/>
    <path id="Path_41" data-name="Path 41" d="M497.323,261.044,388.508,110.57l-59.03,44.075-.2,24.508,59.1-48.994Z" transform="translate(-326.228 -3.358)" fill="#3e3a39"/>
    <path id="Path_42" data-name="Path 42" d="M497.491,236.634,388.72,86.16l-59.03,44.1-.22,24.486,59.1-48.994Z" transform="translate(-326 -32.554)" fill="#3e3a39"/>
    <path id="Path_43" data-name="Path 43" d="M497.679,212.246,388.93,61.75l-59.052,44.1-.2,24.508,59.074-49.016Z" transform="translate(-325.749 -61.75)" fill="#3e3a39"/>
  </g>
  <g id="Group_7" data-name="Group 7" transform="translate(0 135.607)">
    <path id="Path_44" data-name="Path 44" d="M309.233,431.9,200.44,281.4l-59.052,44.1-.2,24.508,59.074-49.016Z" transform="translate(-141.19 200.965)" fill="#3e3a39"/>
    <path id="Path_45" data-name="Path 45" d="M309.433,407.486,200.64,256.99l-59.052,44.1-.2,24.508L200.464,276.6Z" transform="translate(-140.951 171.769)" fill="#3e3a39"/>
    <path id="Path_46" data-name="Path 46" d="M309.611,383.086,200.84,232.59l-59.052,44.1-.2,24.486L200.664,252.2Z" transform="translate(-140.712 142.585)" fill="#3e3a39"/>
    <path id="Path_47" data-name="Path 47" d="M309.833,358.664,201.04,208.19l-59.052,44.075-.2,24.508,59.074-48.994Z" transform="translate(-140.472 113.401)" fill="#3e3a39"/>
    <path id="Path_48" data-name="Path 48" d="M310.033,334.254,201.24,183.78l-59.052,44.1-.2,24.508,59.074-48.994Z" transform="translate(-140.233 84.205)" fill="#3e3a39"/>
    <path id="Path_49" data-name="Path 49" d="M310.211,309.866,201.418,159.37l-59.03,44.119L142.19,228l59.1-49.016Z" transform="translate(-139.994 55.01)" fill="#3e3a39"/>
    <path id="Path_50" data-name="Path 50" d="M310.445,285.466,201.63,134.97l-59.03,44.1-.22,24.508,59.1-48.994Z" transform="translate(-139.767 25.826)" fill="#3e3a39"/>
    <path id="Path_51" data-name="Path 51" d="M310.611,261.044,201.818,110.57l-59.03,44.075-.2,24.508,59.074-48.994Z" transform="translate(-139.516 -3.358)" fill="#3e3a39"/>
    <path id="Path_52" data-name="Path 52" d="M310.789,236.634,202.018,86.16l-59.052,44.1-.176,24.486,59.1-48.994Z" transform="translate(-139.276 -32.554)" fill="#3e3a39"/>
    <path id="Path_53" data-name="Path 53" d="M311.023,212.246,202.23,61.75l-59.03,44.1-.22,24.508,59.1-49.016Z" transform="translate(-139.049 -61.75)" fill="#3e3a39"/>
  </g>
</svg>
