<svg xmlns="http://www.w3.org/2000/svg" width="409.487" height="636.166" viewBox="0 0 409.487 636.166">
  <g id="近畿トータルサービス_ロゴ" data-name="近畿トータルサービス ロゴ" transform="translate(-241.059)" opacity="0.05" style="isolation: isolate">
    <g id="Group_8" data-name="Group 8" transform="translate(241.059)">
      <g id="Group_5" data-name="Group 5" transform="translate(117.782)">
        <path id="Path_24" data-name="Path 24" d="M386.341,465.064,276.981,313.78l-59.355,44.334-.216,24.632,59.416-49.264Z" transform="translate(-217.41 171.102)" fill="#3e3a39"/>
        <path id="Path_25" data-name="Path 25" d="M386.621,430.194,277.276,278.91l-59.385,44.35-.2,24.617,59.416-49.248Z" transform="translate(-217.257 152.087)" fill="#3e3a39"/>
        <path id="Path_26" data-name="Path 26" d="M386.911,395.334,277.551,244.05,218.2,288.384l-.216,24.632,59.4-49.249Z" transform="translate(-217.099 133.078)" fill="#3e3a39"/>
        <path id="Path_27" data-name="Path 27" d="M387.2,360.458,277.841,209.19l-59.37,44.319-.2,24.632,59.4-49.248Z" transform="translate(-216.941 114.07)" fill="#3e3a39"/>
        <path id="Path_28" data-name="Path 28" d="M387.476,325.589,278.131,174.32l-59.37,44.334-.2,24.632,59.385-49.248Z" transform="translate(-216.783 95.055)" fill="#3e3a39"/>
        <path id="Path_29" data-name="Path 29" d="M387.756,290.734,278.4,139.45,219.041,183.8l-.2,24.632,59.4-49.264Z" transform="translate(-216.63 76.041)" fill="#3e3a39"/>
        <path id="Path_30" data-name="Path 30" d="M388.03,255.874,278.686,104.59l-59.355,44.334-.2,24.632,59.386-49.264Z" transform="translate(-216.472 57.032)" fill="#3e3a39"/>
        <path id="Path_31" data-name="Path 31" d="M388.32,221.014,278.96,69.73l-59.355,44.319L219.42,138.7l59.37-49.264Z" transform="translate(-216.314 38.023)" fill="#3e3a39"/>
        <path id="Path_32" data-name="Path 32" d="M388.585,186.144,279.255,34.86,219.9,79.194l-.2,24.632,59.386-49.264Z" transform="translate(-216.161 19.009)" fill="#3e3a39"/>
        <path id="Path_33" data-name="Path 33" d="M388.88,151.269,279.535,0,220.2,44.334l-.216,24.632L279.366,19.7Z" transform="translate(-216.009)" fill="#3e3a39"/>
      </g>
      <g id="Group_6" data-name="Group 6" transform="translate(288.506 95.422)">
        <path id="Path_34" data-name="Path 34" d="M446.12,387.3,369.582,281.4l-41.568,31.029-.124,17.245,41.568-34.491Z" transform="translate(-327.89 58.023)" fill="#3e3a39"/>
        <path id="Path_35" data-name="Path 35" d="M446.331,362.889l-76.538-105.9L328.24,288.019l-.17,17.245,41.584-34.475Z" transform="translate(-327.792 44.713)" fill="#3e3a39"/>
        <path id="Path_36" data-name="Path 36" d="M446.531,338.489l-76.554-105.9-41.553,31.029-.155,17.23,41.6-34.46Z" transform="translate(-327.683 31.408)" fill="#3e3a39"/>
        <path id="Path_37" data-name="Path 37" d="M446.726,314.073,370.187,208.19,328.619,239.2l-.139,17.245,41.584-34.475Z" transform="translate(-327.568 18.103)" fill="#3e3a39"/>
        <path id="Path_38" data-name="Path 38" d="M446.931,289.663,370.377,183.78l-41.553,31.029-.155,17.245,41.584-34.475Z" transform="translate(-327.465 4.792)" fill="#3e3a39"/>
        <path id="Path_39" data-name="Path 39" d="M447.131,265.269l-76.569-105.9-41.538,31.045-.154,17.245,41.584-34.491Z" transform="translate(-327.356 -8.519)" fill="#3e3a39"/>
        <path id="Path_40" data-name="Path 40" d="M447.31,240.869l-76.538-105.9L329.2,166l-.124,17.245,41.568-34.476Z" transform="translate(-327.241 -21.824)" fill="#3e3a39"/>
        <path id="Path_41" data-name="Path 41" d="M447.526,216.453,370.956,110.57l-41.537,31.014-.139,17.245,41.584-34.475Z" transform="translate(-327.132 -35.129)" fill="#3e3a39"/>
        <path id="Path_42" data-name="Path 42" d="M447.7,192.043,371.162,86.16l-41.537,31.029-.155,17.23,41.584-34.475Z" transform="translate(-327.028 -48.439)" fill="#3e3a39"/>
        <path id="Path_43" data-name="Path 43" d="M447.895,167.649,371.372,61.75,329.819,92.779l-.139,17.245,41.568-34.491Z" transform="translate(-326.914 -61.75)" fill="#3e3a39"/>
      </g>
      <g id="Group_7" data-name="Group 7" transform="translate(0 95.422)">
        <path id="Path_44" data-name="Path 44" d="M259.436,387.3,182.882,281.4l-41.553,31.029-.139,17.245,41.568-34.491Z" transform="translate(-141.19 58.023)" fill="#3e3a39"/>
        <path id="Path_45" data-name="Path 45" d="M259.636,362.889l-76.554-105.9-41.553,31.029-.139,17.245,41.568-34.475Z" transform="translate(-141.081 44.713)" fill="#3e3a39"/>
        <path id="Path_46" data-name="Path 46" d="M259.82,338.489l-76.538-105.9-41.553,31.029-.139,17.23,41.568-34.46Z" transform="translate(-140.972 31.408)" fill="#3e3a39"/>
        <path id="Path_47" data-name="Path 47" d="M260.036,314.073,183.482,208.19,141.929,239.2l-.139,17.245,41.568-34.475Z" transform="translate(-140.863 18.103)" fill="#3e3a39"/>
        <path id="Path_48" data-name="Path 48" d="M260.236,289.663,183.682,183.78l-41.553,31.029-.139,17.245,41.568-34.475Z" transform="translate(-140.754 4.792)" fill="#3e3a39"/>
        <path id="Path_49" data-name="Path 49" d="M260.42,265.269l-76.554-105.9-41.537,31.045-.139,17.245,41.584-34.491Z" transform="translate(-140.645 -8.519)" fill="#3e3a39"/>
        <path id="Path_50" data-name="Path 50" d="M260.641,240.869l-76.569-105.9L142.535,166l-.155,17.245,41.584-34.476Z" transform="translate(-140.541 -21.824)" fill="#3e3a39"/>
        <path id="Path_51" data-name="Path 51" d="M260.82,216.453,184.267,110.57l-41.537,31.014-.139,17.245,41.568-34.475Z" transform="translate(-140.427 -35.129)" fill="#3e3a39"/>
        <path id="Path_52" data-name="Path 52" d="M261,192.043,184.467,86.16l-41.553,31.029-.124,17.23,41.584-34.475Z" transform="translate(-140.318 -48.439)" fill="#3e3a39"/>
        <path id="Path_53" data-name="Path 53" d="M261.226,167.649,184.672,61.75,143.134,92.779l-.155,17.245,41.584-34.491Z" transform="translate(-140.214 -61.75)" fill="#3e3a39"/>
      </g>
    </g>
  </g>
</svg>
