<svg id="近畿トータルサービス_ロゴ" data-name="近畿トータルサービス ロゴ" xmlns="http://www.w3.org/2000/svg" width="547.37" height="497.07" viewBox="0 0 547.37 497.07">
  <g id="Group_4" data-name="Group 4">
    <g id="Group_1" data-name="Group 1">
      <rect id="Rectangle_46" data-name="Rectangle 46" width="6.95" height="47.75" transform="translate(37.19 448.62)" fill="#3e3a39"/>
      <path id="Path_10" data-name="Path 10" d="M85.11,496.32l-.06-.11V448.62H78.1V483L59.98,448.56l-8.54.06h-.15v47.76h6.95V461.06l19.35,35.32.51-.01v.01h6.95v-.06Z" fill="#3e3a39"/>
      <path id="Path_11" data-name="Path 11" d="M30.04,496.38,12.57,470.36l15.14-21.74h-8.5L6.95,466.22v-17.6H0v47.76H6.95v-19.7l13.23,19.7Z" fill="#3e3a39"/>
      <path id="Path_12" data-name="Path 12" d="M122.3,496.38l-17.47-26.02,15.14-21.74h-8.5l-12.26,17.6v-17.6H92.26v47.76h6.95v-19.7l13.23,19.7Z" fill="#3e3a39"/>
      <rect id="Rectangle_47" data-name="Rectangle 47" width="6.95" height="47.75" transform="translate(129.45 448.62)" fill="#3e3a39"/>
    </g>
    <g id="Group_2" data-name="Group 2">
      <path id="Path_13" data-name="Path 13" d="M301.9,488.44V448.49h-6.95v47.75H314.3v-7.8Z" fill="#3e3a39"/>
      <path id="Path_14" data-name="Path 14" d="M184.89,448.7H158.6v7.8h9.67v39.95h6.95V456.5h9.67Z" fill="#3e3a39"/>
      <path id="Path_15" data-name="Path 15" d="M255.43,448.49H229.15v7.8h9.66v39.95h6.96V456.29h9.66Z" fill="#3e3a39"/>
      <path id="Path_16" data-name="Path 16" d="M207.02,448.74c-11.69,0-21.17,10.63-21.17,23.75s9.48,23.75,21.17,23.75,21.17-10.63,21.17-23.75S218.71,448.74,207.02,448.74Zm0,39.91c-7.95,0-14.4-7.24-14.4-16.16s6.45-16.16,14.4-16.16,14.4,7.24,14.4,16.16S214.97,488.65,207.02,488.65Z" fill="#3e3a39"/>
      <path id="Path_17" data-name="Path 17" d="M284.1,496.24l-2.85-10.27H265.06l-2.85,10.27h-7.86l14.76-47.75h8.07l14.76,47.75h-7.86ZM274.03,460.2l-.84-4.19-.9,4.19-5.11,18.38H279.2Z" fill="#3e3a39"/>
    </g>
    <g id="Group_3" data-name="Group 3">
      <path id="Path_18" data-name="Path 18" d="M547.37,456.39v-7.07H526.64v47.75h20.73v-7.8H533.12V475.01h14.25v-7.07H533.12V456.39Z" fill="#3e3a39"/>
      <rect id="Rectangle_48" data-name="Rectangle 48" width="6.95" height="47.75" transform="translate(468.59 449.32)" fill="#3e3a39"/>
      <path id="Path_19" data-name="Path 19" d="M455.94,449.51l-10.48,38.46-10.23-38.65h-6.86l13.46,47.75h7.76l13.46-47.75Z" fill="#3e3a39"/>
      <path id="Path_20" data-name="Path 20" d="M356.28,469.69l-8.7-2.66c-3.57-1.08-4.72-3.16-4.72-5.82,0-6.01,6.23-6.13,7.33-6.13,1.42,0,5.4.28,6.79,4.45h6.27c-.58-3.38-1.35-5.19-2.89-7.11a12.439,12.439,0,0,0-10.08-4.55c-6.55,0-13.47,3.86-13.47,13.78,0,8.79,4.67,12.14,8.98,13.47l8.06,2.47c3.02.95,4.49,2.21,4.49,5.56,0,6.51-6.64,6.77-8.2,6.77-2.17,0-6.2-.63-7.35-5.77H336.5c1.36,11.04,8.84,12.92,14.19,12.92,8.84,0,13.97-6.39,13.97-14.86,0-9.04-5.82-11.76-8.38-12.52Z" fill="#3e3a39"/>
      <path id="Path_21" data-name="Path 21" d="M390.92,456.39v-7.07H370.19v47.75h20.73v-7.8H376.67V475.01h14.25v-7.07H376.67V456.39Z" fill="#3e3a39"/>
      <path id="Path_22" data-name="Path 22" d="M512.98,484.09a13.764,13.764,0,0,1-10.73,5.39c-7.95,0-14.4-7.24-14.4-16.16s6.45-16.16,14.4-16.16a13.733,13.733,0,0,1,10.73,5.39h8.13c-3.5-7.7-10.63-12.98-18.86-12.98-11.69,0-21.17,10.63-21.17,23.75s9.48,23.75,21.17,23.75c8.23,0,15.36-5.28,18.86-12.98Z" fill="#3e3a39"/>
      <path id="Path_23" data-name="Path 23" d="M423.69,497.07l-12.21-22.03c6.88-.28,11.23-5.24,11.23-13.07,0-6.79-3.67-12.66-10.15-12.66h-13.7v47.75h6.28V477.31l10.95,19.75h7.6Zm-18.55-41.51h6.6c2.89,0,5.18,1.53,5.18,6.35s-2.12,6.9-5.18,6.9h-6.6V455.55Z" fill="#3e3a39"/>
    </g>
  </g>
  <g id="Group_8" data-name="Group 8">
    <g id="Group_5" data-name="Group 5">
      <path id="Path_24" data-name="Path 24" d="M326.73,411.68l-70.77-97.9-38.41,28.69-.14,15.94,38.45-31.88Z" fill="#3e3a39"/>
      <path id="Path_25" data-name="Path 25" d="M327.01,376.81l-70.76-97.9-38.43,28.7-.13,15.93,38.45-31.87Z" fill="#3e3a39"/>
      <path id="Path_26" data-name="Path 26" d="M327.3,341.95l-70.77-97.9-38.41,28.69-.14,15.94,38.44-31.87Z" fill="#3e3a39"/>
      <path id="Path_27" data-name="Path 27" d="M327.59,307.08l-70.77-97.89L218.4,237.87l-.13,15.94,38.44-31.87Z" fill="#3e3a39"/>
      <path id="Path_28" data-name="Path 28" d="M327.87,272.21l-70.76-97.89-38.42,28.69-.13,15.94,38.43-31.87Z" fill="#3e3a39"/>
      <path id="Path_29" data-name="Path 29" d="M328.15,237.35l-70.77-97.9-38.41,28.7-.13,15.94,38.44-31.88Z" fill="#3e3a39"/>
      <path id="Path_30" data-name="Path 30" d="M328.43,202.49l-70.76-97.9-38.41,28.69-.13,15.94,38.43-31.88Z" fill="#3e3a39"/>
      <path id="Path_31" data-name="Path 31" d="M328.72,167.63l-70.77-97.9L219.54,98.41l-.12,15.95,38.42-31.88Z" fill="#3e3a39"/>
      <path id="Path_32" data-name="Path 32" d="M328.99,132.76l-70.75-97.9L219.83,63.55l-.13,15.94,38.43-31.88Z" fill="#3e3a39"/>
      <path id="Path_33" data-name="Path 33" d="M329.28,97.89,258.52,0l-38.4,28.69-.14,15.94,38.43-31.88Z" fill="#3e3a39"/>
    </g>
    <g id="Group_6" data-name="Group 6">
      <path id="Path_34" data-name="Path 34" d="M404.4,349.93,354.87,281.4l-26.9,20.08-.08,11.16,26.9-22.32Z" fill="#3e3a39"/>
      <path id="Path_35" data-name="Path 35" d="M404.6,325.52l-49.53-68.53-26.89,20.08-.11,11.16,26.91-22.31Z" fill="#3e3a39"/>
      <path id="Path_36" data-name="Path 36" d="M404.8,301.12l-49.54-68.53-26.89,20.08-.1,11.15,26.92-22.3Z" fill="#3e3a39"/>
      <path id="Path_37" data-name="Path 37" d="M405,276.71l-49.53-68.52-26.9,20.07-.09,11.16,26.91-22.31Z" fill="#3e3a39"/>
      <path id="Path_38" data-name="Path 38" d="M405.2,252.3l-49.54-68.52-26.89,20.08-.1,11.16,26.91-22.31Z" fill="#3e3a39"/>
      <path id="Path_39" data-name="Path 39" d="M405.4,227.9l-49.55-68.53-26.88,20.09-.1,11.16,26.91-22.32Z" fill="#3e3a39"/>
      <path id="Path_40" data-name="Path 40" d="M405.59,203.5l-49.53-68.53-26.9,20.08-.08,11.16,26.9-22.31Z" fill="#3e3a39"/>
      <path id="Path_41" data-name="Path 41" d="M405.8,179.09l-49.55-68.52-26.88,20.07-.09,11.16,26.91-22.31Z" fill="#3e3a39"/>
      <path id="Path_42" data-name="Path 42" d="M405.98,154.68,356.45,86.16l-26.88,20.08-.1,11.15,26.91-22.31Z" fill="#3e3a39"/>
      <path id="Path_43" data-name="Path 43" d="M406.18,130.28,356.66,61.75,329.77,81.83l-.09,11.16,26.9-22.32Z" fill="#3e3a39"/>
    </g>
    <g id="Group_7" data-name="Group 7">
      <path id="Path_44" data-name="Path 44" d="M217.71,349.93,168.17,281.4l-26.89,20.08-.09,11.16,26.9-22.32Z" fill="#3e3a39"/>
      <path id="Path_45" data-name="Path 45" d="M217.91,325.52l-49.54-68.53-26.89,20.08-.09,11.16,26.9-22.31Z" fill="#3e3a39"/>
      <path id="Path_46" data-name="Path 46" d="M218.1,301.12l-49.53-68.53-26.89,20.08-.09,11.15,26.9-22.3Z" fill="#3e3a39"/>
      <path id="Path_47" data-name="Path 47" d="M218.31,276.71l-49.54-68.52-26.89,20.07-.09,11.16,26.9-22.31Z" fill="#3e3a39"/>
      <path id="Path_48" data-name="Path 48" d="M218.51,252.3l-49.54-68.52-26.89,20.08-.09,11.16,26.9-22.31Z" fill="#3e3a39"/>
      <path id="Path_49" data-name="Path 49" d="M218.7,227.9l-49.54-68.53-26.88,20.09-.09,11.16L169.1,168.3Z" fill="#3e3a39"/>
      <path id="Path_50" data-name="Path 50" d="M218.91,203.5l-49.55-68.53-26.88,20.08-.1,11.16,26.91-22.31Z" fill="#3e3a39"/>
      <path id="Path_51" data-name="Path 51" d="M219.1,179.09l-49.54-68.52-26.88,20.07-.09,11.16,26.9-22.31Z" fill="#3e3a39"/>
      <path id="Path_52" data-name="Path 52" d="M219.29,154.68,169.76,86.16l-26.89,20.08-.08,11.15L169.7,95.08Z" fill="#3e3a39"/>
      <path id="Path_53" data-name="Path 53" d="M219.5,130.28,169.96,61.75,143.08,81.83l-.1,11.16,26.91-22.32Z" fill="#3e3a39"/>
    </g>
  </g>
</svg>
