<svg id="近畿トータルサービス_ロゴ" data-name="近畿トータルサービス ロゴ" xmlns="http://www.w3.org/2000/svg" width="266" height="241.556" viewBox="0 0 266 241.556">
  <g id="Group_4" data-name="Group 4" transform="translate(0 217.075)">
    <g id="Group_1" data-name="Group 1" transform="translate(0 0.343)">
      <rect id="Rectangle_46" data-name="Rectangle 46" width="3.458" height="23.76" transform="translate(18.505 0.03)" fill="#3e3a39"/>
      <path id="Path_10" data-name="Path 10" d="M68.118,472.325l-.03-.055V448.59H64.63V465.7L55.614,448.56l-4.249.03H51.29v23.764h3.458V454.78l9.628,17.575.254,0v0h3.458v-.03Z" transform="translate(-25.769 -448.56)" fill="#3e3a39"/>
      <path id="Path_11" data-name="Path 11" d="M14.947,472.385,6.255,459.437l7.533-10.817H9.559l-6.1,8.757V448.62H0v23.765H3.458v-9.8l6.583,9.8Z" transform="translate(0 -448.59)" fill="#3e3a39"/>
      <path id="Path_12" data-name="Path 12" d="M107.207,472.385l-8.693-12.947,7.533-10.817h-4.229l-6.1,8.757V448.62H92.26v23.765h3.458v-9.8l6.583,9.8Z" transform="translate(-46.353 -448.59)" fill="#3e3a39"/>
      <rect id="Rectangle_47" data-name="Rectangle 47" width="3.458" height="23.76" transform="translate(64.412 0.03)" fill="#3e3a39"/>
    </g>
    <g id="Group_2" data-name="Group 2" transform="translate(76.341 0.308)">
      <path id="Path_13" data-name="Path 13" d="M298.408,468.368V448.49H294.95v23.76h9.628v-3.881Z" transform="translate(-227.105 -448.49)" fill="#3e3a39"/>
      <path id="Path_14" data-name="Path 14" d="M171.681,448.7H158.6v3.881h4.812V472.46h3.458V452.581h4.812Z" transform="translate(-158.6 -448.595)" fill="#3e3a39"/>
      <path id="Path_15" data-name="Path 15" d="M242.226,448.49H229.15v3.881h4.807V472.25h3.463V452.371h4.807Z" transform="translate(-194.046 -448.49)" fill="#3e3a39"/>
      <path id="Path_16" data-name="Path 16" d="M196.384,448.74c-5.817,0-10.534,5.289-10.534,11.818s4.717,11.818,10.534,11.818,10.534-5.289,10.534-11.818S202.2,448.74,196.384,448.74Zm0,19.859c-3.956,0-7.165-3.6-7.165-8.041s3.209-8.041,7.165-8.041,7.165,3.6,7.165,8.041S200.34,468.6,196.384,468.6Z" transform="translate(-172.291 -448.616)" fill="#3e3a39"/>
      <path id="Path_17" data-name="Path 17" d="M269.153,472.25l-1.418-5.11h-8.056l-1.418,5.11H254.35l7.344-23.76h4.015l7.344,23.76h-3.911Zm-5.011-17.933-.418-2.085-.448,2.085-2.543,9.146h5.981Z" transform="translate(-206.706 -448.49)" fill="#3e3a39"/>
    </g>
    <g id="Group_3" data-name="Group 3" transform="translate(161.075)">
      <path id="Path_18" data-name="Path 18" d="M536.955,452.838V449.32H526.64v23.76h10.315V469.2h-7.091v-7.1h7.091v-3.518h-7.091v-5.747Z" transform="translate(-432.03 -448.598)" fill="#3e3a39"/>
      <rect id="Rectangle_48" data-name="Rectangle 48" width="3.458" height="23.76" transform="translate(65.726 0.721)" fill="#3e3a39"/>
      <path id="Path_19" data-name="Path 19" d="M442.088,449.414l-5.215,19.137-5.09-19.232H428.37l6.7,23.76h3.861l6.7-23.76Z" transform="translate(-382.657 -448.598)" fill="#3e3a39"/>
      <path id="Path_20" data-name="Path 20" d="M346.342,458.727l-4.329-1.324a2.8,2.8,0,0,1-2.349-2.9c0-2.99,3.1-3.05,3.647-3.05a3.337,3.337,0,0,1,3.379,2.214h3.12a6.861,6.861,0,0,0-1.438-3.538,6.189,6.189,0,0,0-5.016-2.264c-3.259,0-6.7,1.921-6.7,6.857,0,4.374,2.324,6.041,4.468,6.7l4.011,1.229c1.5.473,2.234,1.1,2.234,2.767,0,3.239-3.3,3.369-4.08,3.369a3.451,3.451,0,0,1-3.657-2.871H336.5c.677,5.493,4.4,6.429,7.061,6.429,4.4,0,6.951-3.18,6.951-7.394,0-4.5-2.9-5.852-4.17-6.23Z" transform="translate(-336.5 -447.87)" fill="#3e3a39"/>
      <path id="Path_21" data-name="Path 21" d="M380.5,452.838V449.32H370.19v23.76H380.5V469.2h-7.091v-7.1H380.5v-3.518h-7.091v-5.747Z" transform="translate(-353.426 -448.598)" fill="#3e3a39"/>
      <path id="Path_22" data-name="Path 22" d="M496.953,466.746a6.849,6.849,0,0,1-5.339,2.682c-3.956,0-7.165-3.6-7.165-8.041s3.209-8.041,7.165-8.041a6.833,6.833,0,0,1,5.339,2.682H501a10.474,10.474,0,0,0-9.384-6.459c-5.817,0-10.534,5.289-10.534,11.818s4.717,11.818,10.534,11.818A10.474,10.474,0,0,0,501,466.746Z" transform="translate(-409.139 -448.724)" fill="#3e3a39"/>
      <path id="Path_23" data-name="Path 23" d="M411.215,473.075l-6.075-10.962c3.423-.139,5.588-2.607,5.588-6.5,0-3.379-1.826-6.3-5.05-6.3H398.86v23.76h3.125v-9.827l5.449,9.827h3.782Zm-9.23-20.655h3.284c1.438,0,2.577.761,2.577,3.16s-1.055,3.433-2.577,3.433h-3.284v-6.6Z" transform="translate(-367.831 -448.593)" fill="#3e3a39"/>
    </g>
  </g>
  <g id="Group_8" data-name="Group 8" transform="translate(67.073)">
    <g id="Group_5" data-name="Group 5" transform="translate(37.926)">
      <path id="Path_24" data-name="Path 24" d="M271.806,362.493,236.592,313.78,217.48,328.056l-.07,7.931,19.132-15.863Z" transform="translate(-217.41 -157.649)" fill="#3e3a39"/>
      <path id="Path_25" data-name="Path 25" d="M272.086,327.623,236.877,278.91l-19.122,14.281-.065,7.927,19.132-15.858Z" transform="translate(-217.551 -140.129)" fill="#3e3a39"/>
      <path id="Path_26" data-name="Path 26" d="M272.376,292.763,237.162,244.05,218.05,258.326l-.07,7.931L237.107,250.4Z" transform="translate(-217.696 -122.615)" fill="#3e3a39"/>
      <path id="Path_27" data-name="Path 27" d="M272.666,257.9,237.452,209.19l-19.117,14.271-.065,7.931L237.4,215.534Z" transform="translate(-217.842 -105.101)" fill="#3e3a39"/>
      <path id="Path_28" data-name="Path 28" d="M272.951,223.028,237.742,174.32,218.625,188.6l-.065,7.931,19.122-15.858Z" transform="translate(-217.988 -87.581)" fill="#3e3a39"/>
      <path id="Path_29" data-name="Path 29" d="M273.231,188.163,238.017,139.45,218.9,153.731l-.065,7.931L237.967,145.8Z" transform="translate(-218.128 -70.062)" fill="#3e3a39"/>
      <path id="Path_30" data-name="Path 30" d="M273.516,153.3,238.307,104.59l-19.112,14.276-.065,7.931,19.122-15.863Z" transform="translate(-218.274 -52.548)" fill="#3e3a39"/>
      <path id="Path_31" data-name="Path 31" d="M273.806,118.443,238.592,69.73,219.48,84l-.06,7.936,19.117-15.863Z" transform="translate(-218.42 -35.034)" fill="#3e3a39"/>
      <path id="Path_32" data-name="Path 32" d="M274.081,83.573l-35.2-48.713L219.765,49.136l-.065,7.931L238.822,41.2Z" transform="translate(-218.561 -17.514)" fill="#3e3a39"/>
      <path id="Path_33" data-name="Path 33" d="M274.366,48.708,239.157,0,220.05,14.276l-.07,7.931L239.1,6.344Z" transform="translate(-218.701)" fill="#3e3a39"/>
    </g>
    <g id="Group_6" data-name="Group 6" transform="translate(92.899 30.726)">
      <path id="Path_34" data-name="Path 34" d="M365.96,315.5l-24.645-34.1-13.385,9.991-.04,5.553,13.385-11.106Z" transform="translate(-327.89 -172.106)" fill="#3e3a39"/>
      <path id="Path_35" data-name="Path 35" d="M366.15,291.089,341.5,256.99l-13.38,9.991-.055,5.553,13.39-11.1Z" transform="translate(-327.98 -159.842)" fill="#3e3a39"/>
      <path id="Path_36" data-name="Path 36" d="M366.35,266.689l-24.65-34.1-13.38,9.991-.05,5.548,13.395-11.1Z" transform="translate(-328.081 -147.583)" fill="#3e3a39"/>
      <path id="Path_37" data-name="Path 37" d="M366.555,242.284,341.91,208.19l-13.385,9.986-.045,5.553,13.39-11.1Z" transform="translate(-328.186 -135.324)" fill="#3e3a39"/>
      <path id="Path_38" data-name="Path 38" d="M366.75,217.874,342.1,183.78l-13.38,9.991-.05,5.553,13.39-11.1Z" transform="translate(-328.282 -123.06)" fill="#3e3a39"/>
      <path id="Path_39" data-name="Path 39" d="M366.95,193.469l-24.655-34.1-13.375,10-.05,5.553,13.39-11.106Z" transform="translate(-328.382 -110.796)" fill="#3e3a39"/>
      <path id="Path_40" data-name="Path 40" d="M367.15,169.069,342.5,134.97l-13.385,9.991-.04,5.553,13.385-11.1Z" transform="translate(-328.488 -98.537)" fill="#3e3a39"/>
      <path id="Path_41" data-name="Path 41" d="M367.355,144.664,342.7,110.57l-13.375,9.986-.045,5.553,13.39-11.1Z" transform="translate(-328.588 -86.278)" fill="#3e3a39"/>
      <path id="Path_42" data-name="Path 42" d="M367.54,120.254,342.895,86.16,329.52,96.151l-.05,5.548,13.39-11.1Z" transform="translate(-328.684 -74.014)" fill="#3e3a39"/>
      <path id="Path_43" data-name="Path 43" d="M367.745,95.849,343.1,61.75l-13.38,9.991-.045,5.553,13.385-11.106Z" transform="translate(-328.789 -61.75)" fill="#3e3a39"/>
    </g>
    <g id="Group_7" data-name="Group 7" transform="translate(0 30.726)">
      <path id="Path_44" data-name="Path 44" d="M179.265,315.5l-24.65-34.1-13.38,9.991-.045,5.553,13.385-11.106Z" transform="translate(-141.19 -172.106)" fill="#3e3a39"/>
      <path id="Path_45" data-name="Path 45" d="M179.465,291.089l-24.65-34.1-13.38,9.991-.045,5.553,13.385-11.1Z" transform="translate(-141.29 -159.842)" fill="#3e3a39"/>
      <path id="Path_46" data-name="Path 46" d="M179.66,266.689l-24.645-34.1-13.38,9.991-.045,5.548,13.385-11.1Z" transform="translate(-141.391 -147.583)" fill="#3e3a39"/>
      <path id="Path_47" data-name="Path 47" d="M179.865,242.284l-24.65-34.094-13.38,9.986-.045,5.553,13.385-11.1Z" transform="translate(-141.491 -135.324)" fill="#3e3a39"/>
      <path id="Path_48" data-name="Path 48" d="M180.065,217.874l-24.65-34.094-13.38,9.991-.045,5.553,13.385-11.1Z" transform="translate(-141.592 -123.06)" fill="#3e3a39"/>
      <path id="Path_49" data-name="Path 49" d="M180.26,193.469l-24.65-34.1-13.375,10-.045,5.553,13.39-11.106Z" transform="translate(-141.692 -110.796)" fill="#3e3a39"/>
      <path id="Path_50" data-name="Path 50" d="M180.46,169.069,155.8,134.97l-13.375,9.991-.05,5.553,13.39-11.1Z" transform="translate(-141.788 -98.537)" fill="#3e3a39"/>
      <path id="Path_51" data-name="Path 51" d="M180.66,144.664,156.01,110.57l-13.375,9.986-.045,5.553,13.385-11.1Z" transform="translate(-141.893 -86.278)" fill="#3e3a39"/>
      <path id="Path_52" data-name="Path 52" d="M180.855,120.254,156.21,86.16l-13.38,9.991-.04,5.548,13.39-11.1Z" transform="translate(-141.994 -74.014)" fill="#3e3a39"/>
      <path id="Path_53" data-name="Path 53" d="M181.055,95.849,156.4,61.75,143.03,71.741l-.05,5.553,13.39-11.106Z" transform="translate(-142.089 -61.75)" fill="#3e3a39"/>
    </g>
  </g>
</svg>
